<?xml version="1.0" encoding="utf-8"?>
<!-- Generator: Adobe Illustrator 22.1.0, SVG Export Plug-In . SVG Version: 6.00 Build 0)  -->
<svg version="1.1" id="Capa_1" xmlns="http://www.w3.org/2000/svg" xmlns:xlink="http://www.w3.org/1999/xlink" x="0px" y="0px"
	 viewBox="0 0 500 155.6" style="enable-background:new 0 0 500 155.6;" xml:space="preserve">
<style type="text/css">
	.st0{fill:#203969;}
	.st1{fill:#FFFFFF;}
</style>
<g>
	<path class="st0" d="M325,131.5c-23.3,0-46.6,0-69.9,0c-1.1,0-1.4-0.3-1.4-1.4c0-28.6,0-57.2,0-85.8c0-1.5,0-1.5,1.5-1.5
		c3.7,0,7.4,0,11,0c1.6,0,1.7,0.1,1.7,1.7c0,23.8,0,47.6,0,71.3c0,1.2,0.3,1.5,1.5,1.5c41.8,0,83.5,0,125.3,0c1.7,0,1.7,0,1.7,1.8
		c0,3.7,0,7.4,0,11.1c0,1.1-0.3,1.3-1.3,1.3C371.8,131.5,348.4,131.5,325,131.5z"/>
	<path class="st0" d="M107,75.1c0,10.2,0,20.5,0,30.7c0,1.1-0.3,1.3-1.3,1.3c-3.7-0.1-7.4-0.1-11,0c-1,0-1.2-0.3-1.1-1.2
		c0.1-0.8,0-1.6,0-2.5c0-0.2,0.1-0.6-0.2-0.6c-0.2,0-0.6,0.1-0.7,0.3c-2.8,3.4-6.5,4.9-10.9,5.1c-2.1,0.1-4.2,0.1-6.2-0.3
		c-1.5-0.3-3-0.8-4.4-1.5c-1.3-0.7-2.7-1.4-3.8-2.4c-2-1.7-3.5-3.7-4.8-6.1c-1.5-2.8-2.3-5.9-2.7-8.9c-0.4-3.3-1-6.6-0.3-10
		c0.3-1.6,0.5-3.2,0.8-4.8c0.3-2,1.1-3.9,2-5.7c1.6-3.2,3.8-5.9,6.9-7.8c1.5-0.9,3-1.6,4.7-2.1c2.5-0.8,5-1.2,7.6-0.9
		c2.7,0.3,5.2,1,7.6,2.2c0.9,0.5,1.8,1,2.6,1.7c0.2,0.2,0.4,0.7,0.8,0.4c0.3-0.2,0.1-0.6,0.1-0.9c0-3.2,0-6.3,0-9.5
		c0-2.4,0-4.8,0-7.3c0-1.3,0.3-1.6,1.6-1.6c3.8,0,7.6,0,11.4,0c1,0,1.3,0.4,1.3,1.4C107,54.6,107,64.8,107,75.1z M92.8,82
		c-0.2-2.2,0.2-4.8-0.8-7.4c-0.6-1.4-1-2.8-2.2-3.9c-2.7-2.3-5.8-3.2-9.3-2.1c-1.9,0.6-3.5,1.9-4.5,3.6c-1.4,2.3-2,4.9-2.2,7.5
		c-0.4,4.7-0.3,9.4,1.9,13.8c1.2,2.4,3,3.8,5.5,4.2c2.5,0.4,5.1,0.3,7.3-1.4c2.5-1.9,3.4-4.7,3.9-7.6C92.8,86.8,92.8,84.6,92.8,82z"
		/>
	<path class="st0" d="M186,107.1c-3.2,0-6.4,0-9.5,0c-0.1,0-0.2,0-0.4,0c-1-0.1-2.5,0.5-3-0.2c-0.7-0.9-0.6-2.3-0.9-3.5
		c-0.1-0.3,0-0.6-0.1-1.1c-1.1,1.1-1.9,2.3-3.2,2.9c-1.2,0.6-2.4,1.3-3.6,1.8c-3.9,1.5-8,1.7-12,1c-3.8-0.6-7-2.4-9.4-5.7
		c-2.8-4-2.6-8.3-1.8-12.6c0.6-3.3,2.8-5.8,5.7-7.6c2.4-1.6,5.1-2.6,7.8-3.5c2.8-0.9,5.6-1.3,8.4-1.9c2-0.4,4-0.8,6.1-0.8
		c0.8,0,1.1-0.3,1.1-1.1c-0.1-1.1,0-2.3,0-3.4c0.1-2.5-1.9-4-4.1-4.5c-1.3-0.3-2.6-0.2-4-0.1c-2.5,0.2-4.3,1.4-5.1,3.8
		c-0.1,0.3-0.4,0.6-0.4,1c0.1,1.7-1,1.5-2.1,1.5c-3.6,0-7.1,0-10.7,0c-1.2,0-1.3-0.2-1-1.3c0.1-0.3,0.2-0.5,0.2-0.8
		c0-2.2,0.8-4.2,2-6c1.2-1.9,2.8-3.4,4.9-4.5c5.2-2.6,10.8-3,16.5-2.7c3,0.2,6,0.7,8.8,1.7c2.7,0.9,5.3,2.3,6.7,5
		c0.7,1.3,1.3,2.7,1.5,4.3c0.8,7.9,0.1,15.8,0.4,23.7c0.1,2.7,0,5.5,0,8.2c0,1.6,0.4,3.2,0.8,4.8C185.9,106,185.9,106.5,186,107.1z
		 M171.2,87.8c0-1.2,0-2,0-2.8c0.1-1-0.5-1-1.1-0.8c-2.4,0.9-4.9,1.4-7.3,2.1c-2,0.6-4.1,1.1-5.8,2.6c-2,1.9-2.4,4.5-1,6.5
		c1.7,2.4,6.4,3.4,9.2,2.1c1.3-0.6,2.6-1.3,3.5-2.4C170.5,92.9,171.3,90.3,171.2,87.8z"/>
	<path class="st0" d="M379.8,86.2c-5.1,0-10.2,0-15.4,0c-0.9,0-1.3,0-0.9,1.1c0.4,1,0.3,2.1,0.6,3.2c0.7,2.3,1.7,4.3,3.7,5.7
		c1.1,0.8,2.3,1.4,3.7,1.6c2.8,0.4,5.5,0.3,7.9-1.3c1.6-1.1,2.9-2.5,4-4.1c0.6-0.8,1.4-1.4,1.7-2.3c0.2-0.4,0.5-0.4,0.9-0.2
		c3,1.5,6,3.2,9,4.6c0.5,0.3,1.1,0.6,0.5,1.6c-1.8,3.2-4.3,5.9-7.2,8c-1.9,1.4-4,2.2-6.2,3c-4.7,1.6-9.5,1.4-14.3,0.9
		c-2.2-0.2-4.2-1-6.3-2c-1.8-0.9-3.4-1.9-4.9-3.2c-1.8-1.7-3.3-3.5-4.5-5.7c-1.4-2.7-2.3-5.5-2.7-8.4c-0.4-3.1-0.5-6.3,0.2-9.4
		c0.2-0.9,0.2-1.9,0.3-2.8c0.4-2.1,1.1-4,1.9-6c0.8-1.9,1.9-3.7,3.3-5.3c1.3-1.4,2.7-2.7,4.3-3.8c2.4-1.6,5.1-2.5,7.8-3.1
		c3-0.7,6.1-0.9,9.2-0.3c1.8,0.4,3.6,0.7,5.3,1.3c2,0.6,3.8,1.7,5.4,3c2,1.5,3.6,3.5,4.8,5.7c0.8,1.4,1.6,2.9,2.1,4.5
		c1,2.8,1.3,5.7,1.9,8.6c0.3,1.5,0.2,3,0.2,4.6c0,0.7-0.6,0.5-1,0.5c-3.5,0-7,0-10.4,0C383.3,86.2,381.6,86.2,379.8,86.2z
		 M372.6,77.3c2.8,0,5.7,0,8.5,0c0.9,0,1-0.3,1-1.1c-0.1-1.5-0.7-2.9-1.4-4c-1.7-2.5-4.3-3.8-7.2-4c-3.2-0.3-5.8,1.1-8,3.4
		c-1.3,1.3-1.6,3.1-2.3,4.8c-0.3,0.6,0,0.9,0.7,0.9C366.9,77.3,369.8,77.3,372.6,77.3z"/>
	<path class="st0" d="M301.9,83.2c0-7.5,0-15,0-22.5c0-1,0.2-1.4,1.3-1.4c3.9,0.1,7.9,0.1,11.9,0c0.8,0,1.1,0.2,1.1,1
		c-0.1,0.7,0,1.3,0,2c0,0.2,0,0.5,0.1,0.5c0.2,0.1,0.4,0,0.6-0.2c1.2-1.2,2.7-2,4.2-2.8c1.4-0.7,2.9-1,4.4-1.5c2-0.6,4-0.7,6-0.5
		c3.6,0.4,7,1.2,9.6,3.9c1.4,1.4,2.3,3.1,2.8,5.1c0.9,3.7,0.8,7.5,0.8,11.2c0,9.1,0,18.2,0,27.3c0,1.6,0,1.6-1.6,1.6
		c-3.8,0-7.5,0-11.3,0c-1,0-1.4-0.2-1.4-1.3c0-9.7,0.1-19.5,0-29.2c0-1.8-0.4-3.6-1.5-5.1c-0.7-0.9-1.6-1.6-2.7-1.7
		c-2.6-0.4-5.2-0.7-7.4,1.1c-1.2,0.9-1.9,2.2-2.3,3.6c-0.3,1-0.3,2.2-0.3,3.3c0,9.4,0,18.9,0,28.3c0,0.9-0.2,1.2-1.1,1.2
		c-3.9-0.1-7.8-0.1-11.7,0c-1,0-1.4-0.2-1.4-1.3C301.9,98.2,301.9,90.7,301.9,83.2z"/>
	<path class="st0" d="M209.1,88.1c0,5.9,0,11.9,0,17.8c0,1-0.3,1.2-1.2,1.2c-3.8-0.1-7.6-0.1-11.4,0c-1,0-1.4-0.2-1.4-1.3
		c0-11.8,0-23.5,0-35.3c0-1.5,0-1.5-1.5-1.5c-1.6,0-3.1,0-4.7,0c-0.9,0-1.3-0.2-1.2-1.2c0.1-2.2,0.1-4.4,0-6.6
		c0-0.9,0.3-1.2,1.2-1.2c1.7,0,3.4,0,5.2,0c0.9,0,1.2-0.3,1.2-1.2c-0.1-1.8-0.1-3.6,0-5.4c0.1-2.5,0.9-4.9,2.4-6.9
		c1.2-1.6,3-2.6,4.9-3.3c3.9-1.4,7.9-1.2,11.9-0.6c1,0.2,2,0.1,3,0.5c0.5,0.2,0.7,0.4,0.7,0.9c0,3,0,5.9,0,8.9c0,0.8-0.5,1-1.1,1
		c-1.5,0-3.1,0-4.6,0.1c-2.2,0.2-3.3,1.4-3.3,3.6c0,2.4,0,2.4,2.3,2.4c1.8,0,3.6,0,5.4,0c0.8,0,1.2,0.3,1.2,1.2
		c-0.1,2.2-0.1,4.4,0,6.6c0,1-0.4,1.2-1.2,1.2c-2.1,0-4.2,0-6.3,0c-1,0-1.4,0.2-1.3,1.3C209.2,76.2,209.1,82.1,209.1,88.1z"/>
	<path class="st0" d="M224.3,70.7c0-8.8,0-17.6,0-26.4c0-1.1,0.3-1.4,1.4-1.4c3.7,0.1,7.4,0,11.1,0c1.4,0,1.7,0.3,1.7,1.7
		c0,4.4,0,8.8,0,13.3c0,2.1,0,2.1,2.1,2.1c1.6,0,3.3,0,4.9,0c0.9,0,1.2,0.3,1.2,1.3c0,2.2-0.1,4.3,0,6.5c0,0.9-0.4,1.2-1.2,1.2
		c-2,0-4.1,0-6.1,0c-0.7,0-0.9,0.2-0.9,0.9c0,7.9,0,15.9,0.1,23.8c0,2.2,1,3.1,3.3,3.2c1.4,0,2.8,0,4.2,0c0.6,0,0.8,0.2,0.8,0.8
		c0,3.2,0,6.4,0,9.6c0,0.5,0,0.9-0.7,0.9c-4.1,0.2-8.3,0.6-12.4,0c-3.8-0.6-6.8-2.5-8.3-6.3c-0.8-2-1.1-4.1-1.1-6.2
		C224.3,87.2,224.3,79,224.3,70.7z"/>
	<path class="st0" d="M128.1,64.1c1.4-1.5,2.9-2.2,4.4-2.8c2.5-1.1,5.1-1.9,7.8-2c0.7,0,0.9,0.2,0.9,0.9c0,2.9,0,5.9,0,8.8
		c0,0.4,0,0.9,0.1,1.3c0.2,1.1,0,1.6-1.1,1.6c-1.9,0.1-3.9,0.2-5.7,0.7c-2.1,0.6-4.2,1.2-5.5,3.2c-0.8,1.2-1,2.7-1,4.1
		c0,8,0,15.9,0,23.9c0,1,0.3,2.4-0.2,3.1c-0.6,0.7-2.1,0.2-3.1,0.2c-3.2,0-6.4,0-9.6,0c-1,0-1.3-0.4-1.3-1.3c0-15,0-30.1,0-45.1
		c0-1,0.3-1.5,1.4-1.4c3.9,0.1,7.9,0,11.8,0c0.8,0,1,0.2,1,1C128.1,61.4,128.1,62.6,128.1,64.1z"/>
	<path class="st0" d="M277.8,83.2c0-7.5,0-15.1,0-22.6c0-1,0.3-1.3,1.3-1.3c3.9,0.1,7.7,0,11.6,0c0.8,0,1.1,0.2,1.1,1.1
		c0,15.3,0,30.6,0,45.9c0,0.8-0.3,1-1,1c-3.9,0-7.8,0-11.7,0c-1,0-1.2-0.2-1.2-1.2C277.8,98.3,277.8,90.7,277.8,83.2z"/>
	<path class="st0" d="M284.8,54.1c-2,0-4,0-6,0c-0.7,0-1-0.1-1-1c0-3,0-6,0-9c0-0.9,0.3-1.2,1.2-1.2c3.9,0,7.7,0,11.6,0
		c0.8,0,1.2,0.3,1.2,1.2c0,3,0,6.1,0,9.2c0,0.7-0.2,0.9-0.9,0.9C288.9,54,286.8,54.1,284.8,54.1z"/>
	<path class="st0" d="M412,121.6c-0.7,2.9-1.5,5.8-2.1,8.8c-0.3,1.2-1,0.9-1.8,0.9c-0.7,0.1-1.2,0-1.4-0.9c-0.7-3-1.4-6-2.4-9
		c0,2.5,0,4.9,0,7.4c0,0.5,0,1,0,1.5c0.1,0.8-0.3,1.1-1.1,1c-1.5,0-1.5,0-1.5-1.5c0-3.7,0-7.4,0-11c0-0.9,0.2-1.1,1.1-1.1
		c3,0,3,0,3.8,2.9c0.5,2,1.1,4,1.6,6c0.4-0.1,0.3-0.5,0.4-0.7c0.6-2.4,1.3-4.8,1.9-7.3c0.2-0.6,0.4-0.9,1.1-0.9
		c1,0.1,2.4-0.3,3.1,0.2c0.7,0.6,0.2,2,0.2,3c0,3.1-0.1,6.3,0,9.4c0,1.3-0.7,1-1.4,1c-0.8,0.1-1.3,0-1.2-1.1c0.1-2.9,0-5.7,0-8.6
		C412.2,121.6,412.1,121.6,412,121.6z"/>
	<path class="st0" d="M429.7,131.2c-0.3,0-0.4,0.1-0.6,0.1c-2.3,0.1-2.4,0.1-3.2-2.1c-0.3-0.7-0.6-1-1.3-1c-1.2,0.1-2.4,0.1-3.6,0
		c-0.7,0-1,0.1-1.2,0.8c0,0.2-0.1,0.3-0.2,0.4c-0.7,2-0.7,2-2.9,1.8c-0.5,0-0.6-0.1-0.4-0.6c1.6-4.2,3.3-8.3,4.9-12.5
		c0.1-0.2,0.2-0.4,0.3-0.4c0.8,0,1.7-0.1,2.5,0c0.6,0.1,0.5,0.8,0.7,1.2C426.4,123,428,127,429.7,131.2z M422.8,121
		c-0.7,1.8-1.2,3.3-1.8,4.9c1.2,0,2.3,0,3.6,0C424,124.2,423.5,122.7,422.8,121z"/>
	<path class="st0" d="M406,73.1c-4.2,0.1-7.7-3.6-7.8-8.1c-0.1-3.5,3.7-7.5,7.9-7.5c4,0,7.8,3.7,7.6,7.8
		C413.5,69.7,410.5,73.1,406,73.1z M400.4,65.1c-0.1,3.7,2.6,6.3,5.7,6.3c3.5-0.1,5.7-2.6,5.7-6.3c0.1-3-2.2-6-5.8-5.9
		C402.9,59.2,400.2,62,400.4,65.1z"/>
	<path class="st0" d="M433.2,128.9c2.5,0,4.6,0,6.8,0c0.9,0,1,0.4,1,1.1c-0.1,0.6,0.2,1.3-0.9,1.3c-3.1-0.1-6.2,0-9.3,0
		c-0.7,0-0.9-0.2-0.9-0.9c0-1.1,0.2-2,1-2.9c1.9-2.1,3.7-4.3,5.5-6.5c0.2-0.3,0.5-0.4,0.5-1c-1.8,0-3.5-0.1-5.2,0
		c-1,0.1-1-0.5-1-1.2c0-0.7,0-1.2,1-1.2c2.5,0.1,4.9,0,7.4,0c0.5,0,1.4-0.4,1.5,0.3c0.2,0.8,0.3,1.7-0.3,2.5
		c-1.5,1.8-3.1,3.6-4.6,5.5C434.9,126.8,434.2,127.8,433.2,128.9z"/>
	<path class="st0" d="M403,65.4c0-0.7,0-1.5,0-2.2c0-1.8-0.3-1.5,1.6-1.6c1.1,0,2.1,0,3.2,0.1c1.3,0.1,1.9,1,1.8,2.2
		c0,0.8-0.7,0.7-1,1.1c-0.3,0.4-0.6,0.4,0,0.8c0.6,0.4,1.3,2.6,1.2,3.3c-0.1,0.3-0.3,0.4-0.6,0.4c-0.5,0-0.9,0-1.2-0.5
		c-0.5-0.6-0.4-1.5-0.8-2.1c-0.2-0.5-0.6-0.7-1-0.9c-0.6-0.3-1.1-0.1-1.1,0.7c0,0.6,0,1.2,0,1.8c-0.1,0.7-0.5,1-1.2,1
		c-0.8,0-0.8-0.5-0.8-1.1C403,67.3,403,66.4,403,65.4z M405,63.6c0,0.6-0.1,1.1,0.7,1c0.7-0.1,1.6,0.2,1.6-1c0-1-0.8-0.8-1.4-0.9
		C405.3,62.7,404.9,62.9,405,63.6z"/>
</g>
</svg>
